<?xml version="1.0" encoding="UTF-8"?>
<svg id="Outlines" xmlns="http://www.w3.org/2000/svg" viewBox="0 0 24 24">
  <defs>
    <style>
      .cls-1 {
        fill: #1b1b1b;
      }
    </style>
  </defs>
  <g id="arrows-split-horizontal">
    <path class="cls-1" d="M21,17.75h-5.4c-.92,0-1.84-.22-2.66-.65-.82-.42-1.53-1.05-2.05-1.8l-.51-.73c-.39-.56-.92-1.02-1.52-1.33-.6-.31-1.28-.48-1.96-.48h-3.9c-.41,0-.75-.34-.75-.75s.34-.75.75-.75h3.9c.92,0,1.84.22,2.66.65.82.42,1.53,1.05,2.05,1.8l.51.73c.39.56.92,1.02,1.52,1.33.6.31,1.28.48,1.96.48h5.4c.41,0,.75.34.75.75s-.34.75-.75.75Z"/>
    <path class="cls-1" d="M6.9,12.75h-3.9c-.41,0-.75-.34-.75-.75s.34-.75.75-.75h3.9c.68,0,1.36-.17,1.96-.48.6-.31,1.13-.77,1.52-1.33l.51-.73c.53-.75,1.24-1.38,2.05-1.8.82-.43,1.74-.65,2.66-.65h5.4c.41,0,.75.34.75.75s-.34.75-.75.75h-5.4c-.68,0-1.36.17-1.96.48-.6.32-1.13.78-1.52,1.33l-.51.73c-.53.76-1.24,1.38-2.06,1.8-.82.43-1.73.65-2.66.65Z"/>
    <path class="cls-1" d="M18,10.75c-.19,0-.38-.07-.53-.22-.29-.29-.29-.77,0-1.06l2.47-2.47-2.47-2.47c-.29-.29-.29-.77,0-1.06s.77-.29,1.06,0l3,3c.29.29.29.77,0,1.06l-3,3c-.15.15-.34.22-.53.22Z"/>
    <path class="cls-1" d="M18,20.75c-.19,0-.38-.07-.53-.22-.29-.29-.29-.77,0-1.06l2.47-2.47-2.47-2.47c-.29-.29-.29-.77,0-1.06s.77-.29,1.06,0l3,3c.29.29.29.77,0,1.06l-3,3c-.15.15-.34.22-.53.22Z"/>
  </g>
</svg>