<?xml version="1.0" encoding="UTF-8"?>
<svg id="Outlines" xmlns="http://www.w3.org/2000/svg" viewBox="0 0 24 24">
  <defs>
    <style>
      .cls-1 {
        fill: #1b1b1b;
      }
    </style>
  </defs>
  <g id="link">
    <path class="cls-1" d="M9.68,22.05c-1.9,0-3.69-.74-5.03-2.08-1.34-1.34-2.08-3.13-2.08-5.03s.74-3.69,2.08-5.03l6.5-6.5c.93-.93,2.21-1.46,3.53-1.46s2.59.52,3.53,1.46,1.46,2.2,1.46,3.53-.52,2.59-1.46,3.53l-6.5,6.5c-1.08,1.08-2.99,1.08-4.06,0-.54-.54-.84-1.26-.84-2.03s.3-1.49.84-2.03l6.5-6.5c.29-.29.77-.29,1.06,0s.29.77,0,1.06l-6.5,6.5c-.26.26-.4.6-.4.97s.14.71.4.97c.51.51,1.42.51,1.94,0l6.5-6.5c.66-.66,1.02-1.54,1.02-2.47s-.36-1.81-1.02-2.47-1.54-1.02-2.47-1.02-1.82.37-2.47,1.02l-6.5,6.5c-1.06,1.06-1.64,2.47-1.64,3.97s.58,2.91,1.64,3.97c1.06,1.06,2.47,1.64,3.97,1.64s2.91-.58,3.97-1.64l6.5-6.5c.29-.29.77-.29,1.06,0s.29.77,0,1.06l-6.5,6.5c-1.34,1.34-3.13,2.08-5.03,2.08Z"/>
  </g>
</svg>