<?xml version="1.0" encoding="UTF-8"?>
<svg id="Outlines" xmlns="http://www.w3.org/2000/svg" viewBox="0 0 24 24">
  <defs>
    <style>
      .cls-1 {
        fill: #1b1b1b;
      }
    </style>
  </defs>
  <g id="box-view">
    <path class="cls-1" d="M9,10.75h-4c-.46,0-.91-.19-1.24-.51s-.51-.78-.51-1.24v-4c0-.47.18-.91.51-1.24.33-.33.78-.51,1.24-.51h4c.47,0,.91.18,1.24.51.33.33.51.77.51,1.24v4c0,.46-.19.91-.51,1.24-.33.33-.77.51-1.24.51ZM5,4.75c-.07,0-.13.03-.18.07s-.07.11-.07.18v4c0,.07.03.13.07.18s.11.07.18.07h4c.07,0,.13-.03.18-.07s.07-.11.07-.18v-4c0-.07-.03-.13-.07-.18s-.11-.07-.18-.07h-4Z"/>
    <path class="cls-1" d="M19,10.75h-4c-.47,0-.91-.18-1.24-.51-.33-.33-.51-.78-.51-1.24v-4c0-.47.18-.91.51-1.24.33-.33.77-.51,1.24-.51h4c.46,0,.91.19,1.24.51.33.33.51.77.51,1.24v4c0,.46-.19.91-.51,1.24s-.78.51-1.24.51ZM15,4.75c-.07,0-.13.03-.18.07s-.07.11-.07.18v4c0,.07.03.13.07.18s.11.07.18.07h4c.07,0,.13-.03.18-.07s.07-.11.07-.18v-4c0-.07-.03-.13-.07-.18s-.11-.07-.18-.07h-4Z"/>
    <path class="cls-1" d="M9,20.75h-4c-.46,0-.91-.19-1.24-.51s-.51-.78-.51-1.24v-4c0-.47.18-.91.51-1.24.33-.33.78-.51,1.24-.51h4c.47,0,.91.18,1.24.51.33.33.51.77.51,1.24v4c0,.46-.19.91-.51,1.24-.33.33-.77.51-1.24.51ZM5,14.75c-.07,0-.13.03-.18.07s-.07.11-.07.18v4c0,.07.03.13.07.18s.11.07.18.07h4c.07,0,.13-.03.18-.07s.07-.11.07-.18v-4c0-.07-.03-.13-.07-.18s-.11-.07-.18-.07h-4Z"/>
    <path class="cls-1" d="M19,20.75h-4c-.47,0-.91-.18-1.24-.51-.33-.33-.51-.78-.51-1.24v-4c0-.47.18-.91.51-1.24.33-.33.77-.51,1.24-.51h4c.46,0,.91.19,1.24.51.33.33.51.77.51,1.24v4c0,.46-.19.91-.51,1.24s-.78.51-1.24.51ZM15,14.75c-.07,0-.13.03-.18.07s-.07.11-.07.18v4c0,.07.03.13.07.18s.11.07.18.07h4c.07,0,.13-.03.18-.07s.07-.11.07-.18v-4c0-.07-.03-.13-.07-.18s-.11-.07-.18-.07h-4Z"/>
  </g>
</svg>