<?xml version="1.0" encoding="UTF-8"?>
<svg id="Outlines" xmlns="http://www.w3.org/2000/svg" viewBox="0 0 24 24">
  <defs>
    <style>
      .cls-1 {
        fill: #1b1b1b;
      }
    </style>
  </defs>
  <g id="cache">
    <path class="cls-1" d="M12,19.75h-7c-.74,0-1.43-.29-1.95-.81s-.8-1.21-.8-1.94V6c0-.74.29-1.43.8-1.94s1.21-.81,1.95-.81h4c.2,0,.39.08.53.22l2.78,2.78h6.69c.73,0,1.42.29,1.94.81s.81,1.21.81,1.94v2.5c0,.41-.34.75-.75.75s-.75-.34-.75-.75v-2.5c0-.33-.13-.65-.37-.88s-.55-.37-.88-.37h-7c-.2,0-.39-.08-.53-.22l-2.78-2.78h-3.69c-.33,0-.65.13-.88.37s-.37.55-.37.88v11c0,.33.13.65.37.88s.55.37.88.37h7c.41,0,.75.34.75.75s-.34.75-.75.75Z"/>
    <path class="cls-1" d="M19,22.75c-.17,0-.34-.06-.48-.17-1.02-.86-1.73-1.49-2.17-1.92-.53-.53-.88-1.19-1.03-1.92-.15-.73-.07-1.48.21-2.17.29-.69.76-1.27,1.38-1.68,1.24-.83,2.93-.83,4.17,0,.62.41,1.1,1,1.38,1.68.29.69.36,1.44.21,2.17-.14.73-.5,1.39-1.03,1.92-.37.37-1.08,1-2.17,1.92-.14.12-.31.18-.48.18ZM19,15.75c-.45,0-.88.13-1.25.38-.37.25-.66.6-.83,1.01-.17.41-.21.86-.13,1.3s.3.84.62,1.15.86.81,1.59,1.43c.78-.66,1.31-1.14,1.59-1.42,0,0,0,0,0,0,.32-.32.53-.71.62-1.15.09-.44.04-.89-.13-1.3-.17-.41-.46-.76-.83-1.01-.37-.25-.8-.38-1.25-.38Z"/>
    <path class="cls-1" d="M19,18.76c-.41,0-.75-.34-.75-.75s.34-.75.75-.75.75.33.75.75h0c0,.42-.34.76-.75.76Z"/>
  </g>
</svg>