<?xml version="1.0" encoding="UTF-8"?>
<svg id="Outlines" xmlns="http://www.w3.org/2000/svg" viewBox="0 0 24 24">
  <defs>
    <style>
      .cls-1 {
        fill: #1b1b1b;
      }
    </style>
  </defs>
  <g id="casemap-option2">
    <path class="cls-1" d="M19.13,6.14H3.13c-.41,0-.75-.34-.75-.75s.34-.75.75-.75h16c.41,0,.75.34.75.75s-.34.75-.75.75Z"/>
    <path class="cls-1" d="M15.63,15.64h-1.5c-.55,0-1.07-.15-1.48-.42-.49-.33-.77-.81-.77-1.33v-4c0-.52.28-1,.77-1.33.41-.27.93-.42,1.48-.42h1.5c.55,0,1.07.15,1.48.42.49.33.77.81.77,1.33v4c0,.52-.28,1-.77,1.33-.41.27-.93.42-1.48.42ZM13.38,13.87s.03.05.1.1c.16.1.4.17.65.17h1.5c.25,0,.49-.06.64-.17.09-.06.11-.1.11-.1v-3.97s-.02-.03-.11-.09c-.15-.1-.39-.17-.64-.17h-1.5c-.25,0-.49.06-.65.17-.09.06-.11.1-.11.1v3.97ZM13.38,13.89h0,0Z"/>
    <path class="cls-1" d="M8.13,21.64h-1.5c-.63,0-1.24-.32-1.66-.89-.38-.51-.59-1.17-.59-1.86v-8c0-.7.21-1.36.59-1.87.42-.56,1.03-.88,1.66-.88h1.5c.63,0,1.24.32,1.66.88.38.51.59,1.17.59,1.87v8c0,.7-.21,1.36-.59,1.86-.42.56-1.03.89-1.66.89ZM6.63,9.64c-.16,0-.32.1-.46.29-.18.24-.29.6-.29.96v8c0,.37.11.72.29.96.14.18.3.29.46.29h1.5c.16,0,.32-.1.46-.29.18-.25.29-.6.29-.96v-8c0-.37-.11-.72-.29-.96-.14-.18-.3-.29-.46-.29h-1.5Z"/>
    <path class="cls-1" d="M18.63,8.36c-.19,0-.38-.07-.53-.22-.29-.29-.29-.77,0-1.06l1.72-1.72-1.72-1.72c-.29-.29-.29-.77,0-1.06s.77-.29,1.06,0l2.25,2.25c.29.29.29.77,0,1.06l-2.25,2.25c-.15.15-.34.22-.53.22Z"/>
  </g>
</svg>