<?xml version="1.0" encoding="UTF-8"?>
<svg id="Outlines" xmlns="http://www.w3.org/2000/svg" viewBox="0 0 24 24">
  <defs>
    <style>
      .cls-1 {
        fill: #1b1b1b;
      }
    </style>
  </defs>
  <g id="condition">
    <path class="cls-1" d="M7,12.46c-.41,0-.75-.34-.75-.75V3c0-.41.34-.75.75-.75s.75.34.75.75v8.71c0,.41-.34.75-.75.75Z"/>
    <path class="cls-1" d="M11,7.75c-.19,0-.38-.07-.53-.22l-3.47-3.47-3.47,3.47c-.29.29-.77.29-1.06,0s-.29-.77,0-1.06L6.47,2.47c.29-.29.77-.29,1.06,0l4,4c.29.29.29.77,0,1.06-.15.15-.34.22-.53.22Z"/>
    <path class="cls-1" d="M17,14.75c-.19,0-.38-.07-.53-.22-.29-.29-.29-.77,0-1.06l3.47-3.47-3.47-3.47c-.29-.29-.29-.77,0-1.06s.77-.29,1.06,0l4,4c.29.29.29.77,0,1.06l-4,4c-.15.15-.34.22-.53.22Z"/>
    <path class="cls-1" d="M7,21.75c-.41,0-.75-.34-.75-.75,0-3.14,1.22-6.09,3.44-8.31,2.22-2.22,5.17-3.44,8.31-3.44h3c.41,0,.75.34.75.75s-.34.75-.75.75h-3c-2.74,0-5.31,1.07-7.25,3-1.94,1.93-3,4.51-3,7.25,0,.41-.34.75-.75.75Z"/>
  </g>
</svg>