<?xml version="1.0" encoding="UTF-8"?>
<svg id="Outlines" xmlns="http://www.w3.org/2000/svg" viewBox="0 0 24 24">
  <defs>
    <style>
      .cls-1 {
        fill: #1b1b1b;
      }
    </style>
  </defs>
  <g id="configuration">
    <path class="cls-1" d="M14,8.75c-.74,0-1.43-.29-1.95-.81s-.8-1.21-.8-1.94.29-1.43.8-1.94c1.04-1.04,2.85-1.04,3.89,0,.52.52.81,1.21.81,1.94s-.29,1.42-.81,1.94-1.21.81-1.94.81ZM14,4.75c-.33,0-.65.13-.88.37s-.37.55-.37.88.13.65.37.88c.47.47,1.3.47,1.77,0,.23-.23.37-.55.37-.88s-.13-.65-.37-.88-.55-.37-.88-.37Z"/>
    <path class="cls-1" d="M12,6.75H4c-.41,0-.75-.34-.75-.75s.34-.75.75-.75h8c.41,0,.75.34.75.75s-.34.75-.75.75Z"/>
    <path class="cls-1" d="M20,6.75h-4c-.41,0-.75-.34-.75-.75s.34-.75.75-.75h4c.41,0,.75.34.75.75s-.34.75-.75.75Z"/>
    <path class="cls-1" d="M8,14.75c-.74,0-1.43-.29-1.95-.81s-.8-1.21-.8-1.94.29-1.43.8-1.94c1.04-1.04,2.85-1.04,3.89,0,.52.52.81,1.21.81,1.94s-.29,1.42-.81,1.94-1.21.81-1.94.81ZM8,10.75c-.33,0-.65.13-.88.37s-.37.55-.37.88.13.65.37.88c.47.47,1.3.47,1.77,0,.23-.23.37-.55.37-.88s-.13-.65-.37-.88-.55-.37-.88-.37Z"/>
    <path class="cls-1" d="M6,12.75h-2c-.41,0-.75-.34-.75-.75s.34-.75.75-.75h2c.41,0,.75.34.75.75s-.34.75-.75.75Z"/>
    <path class="cls-1" d="M20,12.75h-10c-.41,0-.75-.34-.75-.75s.34-.75.75-.75h10c.41,0,.75.34.75.75s-.34.75-.75.75Z"/>
    <path class="cls-1" d="M17,20.75c-.74,0-1.43-.29-1.95-.81s-.8-1.21-.8-1.94.29-1.43.8-1.94c1.04-1.04,2.85-1.04,3.89,0,.52.52.81,1.21.81,1.94s-.29,1.42-.81,1.94-1.21.81-1.94.81ZM17,16.75c-.33,0-.65.13-.88.37s-.37.55-.37.88.13.65.37.88c.47.47,1.3.47,1.77,0,.23-.23.37-.55.37-.88s-.13-.65-.37-.88-.55-.37-.88-.37Z"/>
    <path class="cls-1" d="M15,18.75H4c-.41,0-.75-.34-.75-.75s.34-.75.75-.75h11c.41,0,.75.34.75.75s-.34.75-.75.75Z"/>
    <path class="cls-1" d="M20,18.75h-1c-.41,0-.75-.34-.75-.75s.34-.75.75-.75h1c.41,0,.75.34.75.75s-.34.75-.75.75Z"/>
  </g>
</svg>