<?xml version="1.0" encoding="UTF-8"?>
<svg id="Outlines" xmlns="http://www.w3.org/2000/svg" viewBox="0 0 24 24">
  <defs>
    <style>
      .cls-1 {
        fill: #1b1b1b;
      }
    </style>
  </defs>
  <g id="language">
    <path class="cls-1" d="M11,5.75H4c-.41,0-.75-.34-.75-.75s.34-.75.75-.75h7c.41,0,.75.34.75.75s-.34.75-.75.75Z"/>
    <path class="cls-1" d="M4,13.75c-.41,0-.75-.34-.75-.75s.34-.75.75-.75c2.3,0,4.25-3.32,4.25-7.25v-2c0-.41.34-.75.75-.75s.75.34.75.75v2c0,4.91-2.53,8.75-5.75,8.75Z"/>
    <path class="cls-1" d="M11.7,13.75h-.02c-4.24-.11-7.43-2.15-7.43-4.75,0-.41.34-.75.75-.75s.75.34.75.75c0,1.68,2.73,3.17,5.97,3.25.41.01.74.35.73.77-.01.41-.34.73-.75.73Z"/>
    <path class="cls-1" d="M20,20.75c-.29,0-.56-.17-.69-.45l-3.31-7.46-3.31,7.46c-.17.38-.61.55-.99.38-.38-.17-.55-.61-.38-.99l4-9c.24-.54,1.13-.54,1.37,0l4,9c.17.38,0,.82-.38.99-.1.04-.2.06-.3.06Z"/>
    <path class="cls-1" d="M19.1,18.75h-6.2c-.41,0-.75-.34-.75-.75s.34-.75.75-.75h6.2c.41,0,.75.34.75.75s-.34.75-.75.75Z"/>
  </g>
</svg>