<?xml version="1.0" encoding="UTF-8"?>
<svg id="Outlines" xmlns="http://www.w3.org/2000/svg" viewBox="0 0 24 24">
  <defs>
    <style>
      .cls-1 {
        fill: #1b1b1b;
        stroke-width: 0px;
      }
    </style>
  </defs>
  <g id="list">
    <path class="cls-1" d="M20,6.75h-11c-.41,0-.75-.34-.75-.75s.34-.75.75-.75h11c.41,0,.75.34.75.75s-.34.75-.75.75Z"/>
    <path class="cls-1" d="M20,12.75h-11c-.41,0-.75-.34-.75-.75s.34-.75.75-.75h11c.41,0,.75.34.75.75s-.34.75-.75.75Z"/>
    <path class="cls-1" d="M20,18.75h-11c-.41,0-.75-.34-.75-.75s.34-.75.75-.75h11c.41,0,.75.34.75.75s-.34.75-.75.75Z"/>
    <path class="cls-1" d="M5,6.76c-.41,0-.75-.34-.75-.75s.34-.76.75-.76.75.33.75.74h0c0,.43-.34.76-.75.76Z"/>
    <path class="cls-1" d="M5,12.76c-.41,0-.75-.34-.75-.75s.34-.76.75-.76.75.33.75.74h0c0,.43-.34.76-.75.76Z"/>
    <path class="cls-1" d="M5,18.76c-.41,0-.75-.34-.75-.75s.34-.76.75-.76.75.33.75.74h0c0,.43-.34.76-.75.76Z"/>
  </g>
</svg>