<?xml version="1.0" encoding="UTF-8"?>
<svg id="Outlines" xmlns="http://www.w3.org/2000/svg" viewBox="0 0 24 24">
  <defs>
    <style>
      .cls-1 {
        fill: #1b1b1b;
      }
    </style>
  </defs>
  <g id="output">
    <path class="cls-1" d="M13,20.34c-.23,0-.45-.04-.67-.13-.32-.13-.59-.36-.79-.64-.19-.29-.3-.63-.3-.97v-2.84h-7.25c-.46,0-.91-.19-1.24-.51s-.51-.78-.51-1.24v-4c0-.47.18-.91.51-1.24s.78-.51,1.24-.51h7.25v-2.84c0-.35.1-.68.29-.97.19-.29.47-.51.79-.65.31-.13.67-.17,1.01-.1.34.07.66.24.9.48l6.58,6.58c.33.33.51.77.51,1.24s-.19.91-.51,1.24l-6.59,6.59c-.24.24-.55.41-.89.48-.11.02-.23.03-.34.03ZM4,9.75c-.07,0-.13.03-.18.07s-.07.11-.07.18v4c0,.07.03.13.07.18s.11.07.18.07h8c.41,0,.75.34.75.75v3.59s.01.1.04.14c.03.04.07.07.11.09.04.02.09.02.14.01.05,0,.09-.03.13-.07l6.59-6.59s.07-.11.07-.18-.03-.13-.07-.18l-6.59-6.59s-.08-.06-.13-.07c-.05,0-.09,0-.14.01-.05.02-.09.05-.12.09-.03.04-.04.09-.04.14v3.59c0,.41-.34.75-.75.75H4Z"/>
  </g>
</svg>