<?xml version="1.0" encoding="UTF-8"?>
<svg id="Outlines" xmlns="http://www.w3.org/2000/svg" viewBox="0 0 24 24">
  <defs>
    <style>
      .cls-1 {
        fill: #1b1b1b;
      }
    </style>
  </defs>
  <g id="permission">
    <path class="cls-1" d="M4,21.75c-.43,0-.84-.16-1.16-.44-.32-.29-.53-.68-.58-1.1v-.16s-.01-1.22-.01-1.22c0-.64.23-1.27.64-1.77l.58-.59c.14-.14.33-.22.53-.22h1.25v-1.25c0-.41.34-.75.75-.75h1.25v-1.25c0-.2.08-.39.22-.53l1.62-1.62c-.24-.28-.43-.6-.57-.94-.18-.44-.28-.91-.28-1.39s.09-.95.28-1.39c.18-.44.45-.84.79-1.18l2.64-2.64c.34-.34.73-.6,1.18-.79.88-.37,1.89-.37,2.78,0,.44.18.84.45,1.18.79h0l3.6,3.6c.34.34.6.73.79,1.18s.28.91.28,1.39-.09.95-.28,1.39c-.18.44-.45.84-.79,1.18l-2.64,2.64c-.34.34-.74.6-1.18.79-.89.37-1.89.37-2.78,0-.34-.14-.66-.33-.94-.57l-6.04,6.04c-.46.46-1.06.74-1.7.79h-.21s-1.21.01-1.21.01ZM4.31,17.75l-.29.3c-.17.2-.27.48-.27.78v1.25s.04.07.08.11c.04.04.1.06.17.06h1.31c.26-.03.53-.16.74-.37l6.56-6.56c.14-.14.33-.22.53-.22h0c.2,0,.39.08.53.22l.3.3c.2.2.43.35.69.46.52.21,1.11.21,1.63,0,.26-.11.49-.26.69-.46l2.64-2.64c.2-.2.35-.43.46-.69s.16-.53.16-.81-.05-.56-.16-.82c-.11-.26-.26-.49-.46-.69l-3.6-3.6c-.2-.2-.43-.35-.69-.46-.52-.21-1.11-.21-1.63,0-.26.11-.49.26-.69.46l-2.64,2.64c-.2.2-.35.43-.46.69-.11.26-.16.53-.16.81s.05.55.16.81c.11.26.26.49.46.69l.3.3c.29.29.29.77,0,1.06l-1.92,1.92v1.69c0,.41-.34.75-.75.75h-1.25v1.25c0,.41-.34.75-.75.75h-1.69Z"/>
    <path class="cls-1" d="M15.01,9.75c-.41,0-.75-.34-.75-.75s.33-.75.75-.75h0c.41,0,.75.34.75.75s-.34.75-.75.75Z"/>
  </g>
</svg>