<?xml version="1.0" encoding="UTF-8"?>
<svg id="Outlines" xmlns="http://www.w3.org/2000/svg" viewBox="0 0 24 24">
  <defs>
    <style>
      .cls-1 {
        fill: #1b1b1b;
      }
    </style>
  </defs>
  <g id="query">
    <path class="cls-1" d="M12,9.75c-4.35,0-8.75-1.29-8.75-3.75s4.4-3.75,8.75-3.75,8.75,1.29,8.75,3.75-4.4,3.75-8.75,3.75ZM12,3.75c-4.36,0-7.25,1.35-7.25,2.25s2.89,2.25,7.25,2.25,7.25-1.35,7.25-2.25-2.89-2.25-7.25-2.25Z"/>
    <path class="cls-1" d="M12,15.75c-4.35,0-8.75-1.29-8.75-3.75v-6c0-.41.34-.75.75-.75s.75.34.75.75v6c0,.9,2.89,2.25,7.25,2.25.41,0,.75.34.75.75s-.34.75-.75.75ZM20,12.25c-.41,0-.75-.34-.75-.75v-5.5c0-.41.34-.75.75-.75s.75.34.75.75v5.5c0,.41-.34.75-.75.75Z"/>
    <path class="cls-1" d="M12,21.75c-4.35,0-8.75-1.29-8.75-3.75v-6c0-.41.34-.75.75-.75s.75.34.75.75v6c0,.9,2.89,2.25,7.25,2.25.41,0,.75.34.75.75s-.34.75-.75.75Z"/>
    <path class="cls-1" d="M18,21.75c-.99,0-1.95-.4-2.65-1.1s-1.1-1.65-1.1-2.65.39-1.94,1.1-2.65,1.67-1.1,2.65-1.1,1.95.4,2.65,1.1,1.1,1.65,1.1,2.65-.39,1.94-1.1,2.65-1.66,1.1-2.65,1.1ZM18,15.75c-.59,0-1.17.24-1.59.66s-.66.99-.66,1.59.23,1.17.66,1.59c.84.84,2.34.84,3.18,0,.42-.42.66-.99.66-1.59s-.23-1.17-.66-1.59-1-.66-1.59-.66Z"/>
    <path class="cls-1" d="M22,22.75c-.19,0-.38-.07-.53-.22l-1.8-1.8c-.29-.29-.29-.77,0-1.06s.77-.29,1.06,0l1.8,1.8c.29.29.29.77,0,1.06-.15.15-.34.22-.53.22Z"/>
  </g>
</svg>