<?xml version="1.0" encoding="UTF-8"?>
<svg id="Outlines" xmlns="http://www.w3.org/2000/svg" viewBox="0 0 24 24">
  <defs>
    <style>
      .cls-1 {
        fill: #1b1b1b;
        stroke-width: 0px;
      }
    </style>
  </defs>
  <g id="quote">
    <path class="cls-1" d="M6,18.75c-.34,0-.64-.23-.73-.57-.1-.4.14-.81.55-.91,2.34-.59,3.43-1.94,3.43-4.27v-1.25h-3.25c-.46,0-.91-.19-1.24-.51-.33-.33-.51-.77-.51-1.24v-3c0-.46.19-.91.51-1.24s.78-.51,1.24-.51h3c.47,0,.91.18,1.24.51.33.33.51.78.51,1.24v6c0,3-1.58,4.98-4.57,5.73-.06.02-.12.02-.18.02ZM6,6.75c-.07,0-.13.03-.18.07s-.07.11-.07.18v3c0,.07.03.13.07.18s.11.07.18.07h3.25v-3.25c0-.07-.03-.13-.07-.18s-.11-.07-.18-.07h-3Z"/>
    <path class="cls-1" d="M15,18.75c-.34,0-.64-.23-.73-.57-.1-.4.14-.81.55-.91,2.34-.59,3.43-1.94,3.43-4.27v-1.25h-3.25c-.46,0-.91-.19-1.24-.51-.33-.33-.51-.77-.51-1.24v-3c0-.46.19-.91.51-1.24s.78-.51,1.24-.51h3c.47,0,.91.18,1.24.51.33.33.51.78.51,1.24v6c0,3-1.58,4.98-4.57,5.73-.06.02-.12.02-.18.02ZM15,6.75c-.07,0-.13.03-.18.07s-.07.11-.07.18v3c0,.07.03.13.07.18s.11.07.18.07h3.25v-3.25c0-.07-.03-.13-.07-.18s-.11-.07-.18-.07h-3Z"/>
    <rect class="cls-1" x="13.5" y="6.75" width="6" height="4.05"/>
    <rect class="cls-1" x="4.5" y="6.75" width="6" height="4.05"/>
  </g>
</svg>