<?xml version="1.0" encoding="UTF-8"?>
<svg id="Outlines" xmlns="http://www.w3.org/2000/svg" viewBox="0 0 24 24">
  <defs>
    <style>
      .cls-1 {
        fill: #1b1b1b;
      }
    </style>
  </defs>
  <g id="replace">
    <path class="cls-1" d="M8,9.75h-4c-.46,0-.91-.19-1.24-.51s-.51-.78-.51-1.24V4c0-.47.18-.91.51-1.24s.78-.51,1.24-.51h4c.46,0,.91.19,1.24.51.33.33.51.77.51,1.24v4c0,.46-.19.91-.51,1.24s-.78.51-1.24.51ZM4,3.75c-.07,0-.13.03-.18.07s-.07.11-.07.18v4c0,.07.03.13.07.18s.11.07.18.07h4c.07,0,.13-.03.18-.07s.07-.11.07-.18V4c0-.07-.03-.13-.07-.18s-.11-.07-.18-.07h-4Z"/>
    <path class="cls-1" d="M20,21.75h-4c-.46,0-.91-.19-1.24-.51s-.51-.78-.51-1.24v-4c0-.47.18-.91.51-1.24s.78-.51,1.24-.51h4c.46,0,.91.19,1.24.51.33.33.51.77.51,1.24v4c0,.46-.19.91-.51,1.24s-.78.51-1.24.51ZM16,15.75c-.07,0-.13.03-.18.07s-.07.11-.07.18v4c0,.07.03.13.07.18s.11.07.18.07h4c.07,0,.13-.03.18-.07s.07-.11.07-.18v-4c0-.07-.03-.13-.07-.18s-.11-.07-.18-.07h-4Z"/>
    <path class="cls-1" d="M21,11.75c-.41,0-.75-.34-.75-.75v-3c0-.33-.13-.65-.37-.88s-.55-.37-.88-.37h-4.19l1.72,1.72c.29.29.29.77,0,1.06s-.77.29-1.06,0l-3-3c-.07-.07-.13-.15-.16-.24-.04-.09-.06-.19-.06-.29s.02-.2.06-.29c.04-.09.09-.17.16-.24l3-3c.29-.29.77-.29,1.06,0s.29.77,0,1.06l-1.72,1.72h4.19c.74,0,1.43.29,1.95.81.52.52.8,1.21.8,1.94v3c0,.41-.34.75-.75.75Z"/>
    <path class="cls-1" d="M8,21.75c-.19,0-.38-.07-.53-.22-.29-.29-.29-.77,0-1.06l1.72-1.72h-4.19c-.74,0-1.43-.29-1.95-.81s-.8-1.21-.8-1.94v-3c0-.41.34-.75.75-.75s.75.34.75.75v3c0,.33.13.65.37.88s.55.37.88.37h4.19l-1.72-1.72c-.29-.29-.29-.77,0-1.06s.77-.29,1.06,0l3,3c.07.07.13.15.16.24.04.09.06.19.06.29s-.02.2-.06.29c-.04.09-.09.17-.16.24l-3,3c-.15.15-.34.22-.53.22Z"/>
  </g>
</svg>