<?xml version="1.0" encoding="UTF-8"?>
<svg id="Outlines" xmlns="http://www.w3.org/2000/svg" viewBox="0 0 24 24">
  <defs>
    <style>
      .cls-1 {
        fill: #1b1b1b;
      }
    </style>
  </defs>
  <g id="reset">
    <path class="cls-1" d="M12,21.75c-1.29,0-2.54-.25-3.73-.74-1.19-.49-2.25-1.2-3.16-2.11-.29-.29-.29-.77,0-1.06s.77-.29,1.06,0c.77.77,1.67,1.37,2.68,1.79,2.01.83,4.3.83,6.31,0,1.01-.42,1.91-1.02,2.68-1.79.77-.77,1.37-1.67,1.79-2.68.42-1.01.63-2.07.63-3.16s-.21-2.15-.63-3.16c-.42-1.01-1.02-1.91-1.79-2.68s-1.67-1.37-2.68-1.79c-2.01-.83-4.3-.83-6.31,0-1.01.42-1.91,1.02-2.68,1.79s-1.37,1.67-1.79,2.68c-.16.38-.6.56-.98.41-.38-.16-.56-.6-.41-.98.49-1.19,1.2-2.25,2.11-3.16s1.97-1.62,3.16-2.11c2.38-.98,5.08-.98,7.46,0,1.19.49,2.25,1.2,3.16,2.11s1.62,1.97,2.11,3.16c.49,1.19.74,2.45.74,3.73s-.25,2.54-.74,3.73c-.49,1.19-1.2,2.25-2.11,3.16-.91.91-1.98,1.62-3.16,2.11-1.19.49-2.45.74-3.73.74Z"/>
    <path class="cls-1" d="M15,14.75c-.14,0-.29-.04-.42-.13l-3-2c-.34-.23-.44-.7-.21-1.04.23-.34.69-.44,1.04-.21l3,2c.34.23.44.7.21,1.04-.14.22-.38.33-.62.33Z"/>
    <path class="cls-1" d="M12,12.75c-.41,0-.75-.34-.75-.75v-5c0-.41.34-.75.75-.75s.75.34.75.75v5c0,.41-.34.75-.75.75Z"/>
    <path class="cls-1" d="M8,9.75H3c-.41,0-.75-.34-.75-.75v-5c0-.41.34-.75.75-.75s.75.34.75.75v4.25h4.25c.41,0,.75.34.75.75s-.34.75-.75.75Z"/>
  </g>
</svg>