<?xml version="1.0" encoding="UTF-8"?>
<svg id="Outlines" xmlns="http://www.w3.org/2000/svg" viewBox="0 0 24 24">
  <defs>
    <style>
      .cls-1 {
        fill: #1b1b1b;
      }
    </style>
  </defs>
  <g id="source-folder-open">
    <path class="cls-1" d="M5,19.75h-.02c-.73,0-1.41-.29-1.92-.81s-.81-1.21-.81-1.94V6c0-.73.29-1.42.81-1.94s1.21-.81,1.94-.81h4c.2,0,.39.08.53.22l2.78,2.78h6.69c.73,0,1.42.29,1.94.81s.81,1.21.81,1.94v1.42c.22.1.42.26.58.45.17.19.28.42.35.67.07.25.08.5.04.75-.07.41-.45.69-.86.62-.41-.07-.69-.45-.62-.86,0-.04,0-.07,0-.11,0-.03-.03-.07-.05-.09-.02-.03-.05-.05-.08-.06-.04-.02-.07-.02-.11-.02h-12.31c-.05,0-.1.02-.14.04-.04.03-.07.07-.09.12l-2.38,6.34h6.52c.41,0,.75.34.75.75s-.34.75-.75.75h-7.61ZM5,4.75c-.33,0-.65.13-.88.37s-.37.55-.37.88v11c0,.33.13.65.37.88.12.12.25.21.4.27l2.54-6.77c.12-.33.35-.62.64-.82.29-.2.64-.31,1-.31h11.56v-1.25c0-.33-.13-.65-.37-.88s-.55-.37-.88-.37h-7c-.2,0-.39-.08-.53-.22l-2.78-2.78h-3.69Z"/>
    <path class="cls-1" d="M18.54,20.59c-.95,0-1.84-.37-2.51-1.04s-1.04-1.56-1.04-2.5.37-1.84,1.04-2.5c1.34-1.34,3.67-1.34,5.01,0,.67.67,1.04,1.56,1.04,2.51s-.37,1.84-1.04,2.5c-.67.67-1.56,1.04-2.5,1.04ZM18.54,15c-.55,0-1.06.21-1.44.6s-.6.9-.6,1.44.21,1.06.6,1.44c.77.77,2.12.77,2.89,0,.39-.39.6-.9.6-1.44s-.21-1.06-.6-1.44-.9-.6-1.44-.6Z"/>
    <path class="cls-1" d="M22.27,21.52c-.19,0-.38-.07-.53-.22l-1.67-1.68c-.29-.29-.29-.77,0-1.06s.77-.29,1.06,0l1.67,1.68c.29.29.29.77,0,1.06-.15.15-.34.22-.53.22Z"/>
  </g>
</svg>