<?xml version="1.0" encoding="UTF-8"?>
<svg id="Outlines" xmlns="http://www.w3.org/2000/svg" viewBox="0 0 24 24">
  <defs>
    <style>
      .cls-1 {
        fill: #1b1b1b;
      }
    </style>
  </defs>
  <g id="variables">
    <path class="cls-1" d="M12,12.75c-.12,0-.23-.03-.33-.08L3.67,8.67c-.25-.13-.42-.39-.42-.67s.16-.54.42-.67L11.67,3.33c.21-.11.46-.11.67,0l8,4c.25.13.42.39.42.67s-.16.54-.42.67l-8,4c-.11.05-.22.08-.33.08ZM5.68,8l6.32,3.16,6.32-3.16-6.32-3.16-6.32,3.16Z"/>
    <path class="cls-1" d="M12,16.75c-.12,0-.23-.03-.33-.08L3.67,12.67c-.37-.19-.52-.64-.34-1.01.19-.37.64-.52,1.01-.34l7.67,3.83,7.67-3.83c.37-.18.82-.04,1.01.34.19.37.04.82-.34,1.01l-8,4c-.11.05-.22.08-.33.08Z"/>
    <path class="cls-1" d="M12,20.75c-.12,0-.23-.03-.33-.08l-8-4c-.37-.19-.52-.64-.34-1.01.19-.37.64-.52,1.01-.34l7.67,3.83,7.67-3.83c.37-.18.82-.04,1.01.34.19.37.04.82-.34,1.01l-8,4c-.11.05-.22.08-.33.08Z"/>
  </g>
</svg>