<?xml version="1.0" encoding="UTF-8"?>
<svg id="Outlines" xmlns="http://www.w3.org/2000/svg" viewBox="0 0 24 24">
  <defs>
    <style>
      .cls-1 {
        fill: #1b1b1b;
      }
    </style>
  </defs>
  <g id="web-service-process">
    <path class="cls-1" d="M14.7,19.47c-.51,0-1-.2-1.36-.56s-.56-.85-.56-1.36.2-1,.56-1.36c.73-.73,2-.73,2.73,0,.36.37.56.85.56,1.36s-.2,1-.56,1.36c-.37.37-.85.57-1.37.57ZM14.7,16.96c-.15,0-.3.06-.41.17s-.17.25-.17.41.06.3.17.41c.22.22.6.22.82,0,.11-.11.17-.26.17-.41s-.06-.3-.17-.41-.25-.17-.41-.17Z"/>
    <path class="cls-1" d="M19.8,22.46c-.51,0-1-.2-1.36-.56-.37-.37-.57-.85-.57-1.37s.2-1,.56-1.36c.73-.73,2-.73,2.73,0,.36.36.56.85.56,1.36s-.2,1-.56,1.36c-.37.36-.85.56-1.36.56ZM19.8,19.95c-.15,0-.3.06-.41.17s-.17.26-.17.41.06.3.17.41c.21.21.6.22.82,0,.11-.11.17-.25.17-.41s-.06-.3-.17-.41-.25-.17-.41-.17Z"/>
    <path class="cls-1" d="M19.62,16.2c-.51,0-1-.2-1.36-.56-.37-.37-.57-.85-.57-1.37s.2-1,.56-1.36c.73-.73,2-.73,2.73,0,.36.37.56.85.56,1.36s-.2,1-.56,1.36c-.37.37-.85.57-1.37.57ZM19.62,13.69c-.15,0-.3.06-.41.17s-.17.25-.17.41.06.3.17.41c.22.22.6.22.82,0,.11-.11.17-.25.17-.41s-.06-.3-.17-.41-.25-.17-.41-.17Z"/>
    <path class="cls-1" d="M18.69,20.61c-.12,0-.25-.03-.36-.1l-2.88-1.8c-.32-.2-.41-.61-.21-.93.2-.32.61-.41.93-.21l2.88,1.8c.32.2.41.61.21.93-.13.21-.35.32-.57.32Z"/>
    <path class="cls-1" d="M15.72,17.48c-.23,0-.45-.11-.57-.32-.2-.32-.1-.73.21-.93l2.89-1.8c.32-.2.73-.1.93.21s.1.73-.21.93l-2.89,1.8c-.11.07-.23.1-.36.1Z"/>
    <path class="cls-1" d="M11.95,20.97c-2.6,0-5.05-1.01-6.89-2.86-1.84-1.84-2.86-4.29-2.86-6.89s1.01-5.05,2.86-6.89c1.84-1.84,4.29-2.86,6.89-2.86s5.05,1.01,6.89,2.86c1.84,1.84,2.86,4.29,2.86,6.89,0,.41-.34.75-.75.75s-.75-.34-.75-.75c0-2.2-.86-4.28-2.42-5.83-1.56-1.56-3.63-2.42-5.83-2.42s-4.28.86-5.83,2.42c-1.56,1.56-2.42,3.63-2.42,5.83s.86,4.28,2.42,5.83c1.56,1.56,3.63,2.42,5.83,2.42.41,0,.75.34.75.75s-.34.75-.75.75Z"/>
    <g>
      <path class="cls-1" d="M8.14,3.02l-2.1,2.1c-.06.06-.09.13-.09.21v2c0,.08.03.16.09.21l.57.57c.06.06.13.09.21.09h1.25c.08,0,.16.03.21.09l.93.93c.18.18.48.05.48-.2,0-.04-.01-.09-.03-.13l-.69-1.38s-.03-.09-.03-.13v-1.24c0-.11.06-.22.17-.27l1.2-.6c.08-.04.18-.04.27,0l1.1.55c.15.07.33.01.4-.13l.59-1.19s.03-.06.06-.08l1.09-1.09c.16-.16.09-.45-.14-.5l-2.41-.6s-.1-.01-.15,0l-2.85.71c-.05.01-.1.04-.14.08Z"/>
      <path class="cls-1" d="M9.41,9.69c-.17,0-.34-.07-.47-.19l-.93-.93-1.2.02c-.18,0-.35-.07-.48-.2l-.57-.57c-.13-.13-.2-.3-.2-.48v-2c0-.18.07-.35.2-.48l2.1-2.1c.09-.08.19-.15.31-.18l2.85-.71c.1-.03.22-.03.33,0l2.41.6c.24.06.42.24.49.48s0,.49-.17.66l-1.09,1.09-.58,1.17c-.08.16-.22.28-.39.34-.17.06-.36.04-.52-.04l-1.1-.55-1.13.6.04,1.18.68,1.34c.04.08.07.19.07.29,0,.27-.16.51-.41.61-.08.03-.17.05-.25.05ZM8.07,7.84c.18,0,.35.07.48.2l.54.54-.45-.88c-.05-.1-.07-.2-.07-.3v-1.24c0-.25.15-.49.37-.6l1.2-.6c.19-.09.41-.09.6,0l1.03.51.56-1.12c.03-.06.07-.12.12-.18l1-1-2.28-.57-2.79.71-2.09,2.09.02,1.95.55.52,1.2-.02ZM11.85,5.5h0s0,0,0,0Z"/>
    </g>
    <g>
      <path class="cls-1" d="M14.33,9.85l.4.4c.12.12.12.31,0,.42l-.54.54-.72.72s-.04.05-.06.08l-.46.92c-.11.22-.43.22-.54,0l-.44-.88c-.03-.06-.04-.12-.03-.18l.19-1.23c.02-.11.09-.2.19-.23l1.67-.62c.11-.04.23-.01.32.07Z"/>
      <path class="cls-1" d="M12.7,13.47c-.26,0-.49-.14-.6-.37l-.44-.88c-.06-.12-.09-.27-.06-.41l.19-1.23c.04-.24.2-.44.43-.53l1.67-.62c.25-.09.53-.03.71.16l.4.4c.13.13.2.3.2.48s-.07.35-.2.48l-1.25,1.25-.45.9c-.11.23-.35.37-.6.37ZM14.1,10.15l-1.62.6-.15,1.17.36.7.39-.79c.03-.07.08-.12.12-.18l1.2-1.2-.32-.31Z"/>
    </g>
    <g>
      <path class="cls-1" d="M8.24,18.24l-.85.22c-.12.03-.24-.01-.31-.11l-.7-.92-.79-1.04s-.04-.04-.06-.06l-1.14-.87c-.23-.18-.1-.54.19-.54h1.41s.08.02.12.04l1.85.86c.09.04.15.12.17.22l.33,1.85c.03.15-.07.3-.22.34Z"/>
      <path class="cls-1" d="M7.32,18.85c-.21,0-.41-.1-.54-.27l-1.49-1.96-1.12-.86c-.23-.18-.32-.48-.23-.76.1-.28.37-.46.64-.46h1.41c.09.01.19.04.28.08l1.84.86c.2.09.34.27.38.49l.33,1.85c.06.34-.15.68-.49.77l-.85.22c-.06.01-.12.02-.17.02ZM4.8,15.31l1.08.86,1.49,1.96.7-.23-.32-1.78-1.81-.81h-1.15ZM8.09,17.97h0ZM8.14,17.88s0,0,0,0h0Z"/>
    </g>
  </g>
</svg>