<?xml version="1.0" encoding="UTF-8"?>
<svg id="Outlines" xmlns="http://www.w3.org/2000/svg" viewBox="0 0 24 24">
  <defs>
    <style>
      .cls-1 {
        fill: #1b1b1b;
      }
    </style>
  </defs>
  <g id="world-cog">
    <path class="cls-1" d="M12,21.75c-1.93,0-3.79-.56-5.4-1.63-1.61-1.07-2.86-2.58-3.6-4.37s-.94-3.74-.56-5.64c.37-1.9,1.29-3.63,2.66-5,1.37-1.37,3.09-2.3,4.99-2.68,1.9-.38,3.85-.19,5.64.55,1.79.74,3.3,1.98,4.38,3.59,1.08,1.61,1.65,3.49,1.65,5.42,0,.41-.34.75-.75.75s-.75-.34-.75-.75c0-1.64-.48-3.22-1.39-4.59-.91-1.36-2.19-2.41-3.71-3.04-1.51-.63-3.16-.79-4.77-.47-1.61.32-3.07,1.1-4.22,2.26-1.16,1.16-1.94,2.62-2.25,4.23-.32,1.61-.15,3.26.48,4.77.63,1.51,1.68,2.79,3.05,3.7,1.36.9,2.94,1.38,4.57,1.38h.02c.41,0,.75.33.75.75,0,.42-.32.75-.77.75Z"/>
    <path class="cls-1" d="M20.4,9.75H3.6c-.41,0-.75-.34-.75-.75s.34-.75.75-.75h16.8c.41,0,.75.34.75.75s-.34.75-.75.75Z"/>
    <path class="cls-1" d="M12.5,15.75H3.6c-.41,0-.75-.34-.75-.75s.34-.75.75-.75h8.9c.41,0,.75.34.75.75s-.34.75-.75.75Z"/>
    <path class="cls-1" d="M11.5,21.75c-.25,0-.5-.12-.64-.35-1.76-2.82-2.69-6.07-2.69-9.4s.93-6.58,2.69-9.4c.22-.35.68-.46,1.03-.24.35.22.46.68.24,1.03-1.61,2.58-2.46,5.56-2.46,8.6s.85,6.02,2.46,8.6c.22.35.11.81-.24,1.03-.12.08-.26.11-.4.11Z"/>
    <path class="cls-1" d="M15.02,14.13s-.04,0-.06,0c-.41-.03-.72-.39-.69-.81.28-3.46-.58-6.98-2.41-9.92-.22-.35-.11-.81.24-1.03.35-.22.81-.11,1.03.24,2,3.21,2.94,7.06,2.63,10.83-.03.39-.36.69-.75.69Z"/>
    <path class="cls-1" d="M19,21.75c-.74,0-1.43-.29-1.95-.81s-.8-1.21-.8-1.94.29-1.43.8-1.94c1.04-1.04,2.85-1.04,3.89,0,.52.52.81,1.21.81,1.94s-.29,1.42-.81,1.94-1.21.81-1.94.81ZM19,17.75c-.33,0-.65.13-.88.37s-.37.55-.37.88.13.65.37.88c.47.47,1.3.47,1.77,0,.23-.23.37-.55.37-.88s-.13-.65-.37-.88-.55-.37-.88-.37Z"/>
    <path class="cls-1" d="M19,17.75c-.41,0-.75-.34-.75-.75v-1.5c0-.41.34-.75.75-.75s.75.34.75.75v1.5c0,.41-.34.75-.75.75Z"/>
    <path class="cls-1" d="M19,23.25c-.41,0-.75-.34-.75-.75v-1.5c0-.41.34-.75.75-.75s.75.34.75.75v1.5c0,.41-.34.75-.75.75Z"/>
    <path class="cls-1" d="M20.73,18.75c-.26,0-.51-.13-.65-.38-.21-.36-.08-.82.27-1.02l1.3-.75c.36-.21.82-.08,1.02.27.21.36.08.82-.27,1.02l-1.3.75c-.12.07-.25.1-.37.1Z"/>
    <path class="cls-1" d="M15.97,21.5c-.26,0-.51-.13-.65-.38-.21-.36-.08-.82.27-1.02l1.3-.75c.36-.21.82-.08,1.02.27.21.36.08.82-.27,1.02l-1.3.75c-.12.07-.25.1-.37.1Z"/>
    <path class="cls-1" d="M17.27,18.75c-.13,0-.26-.03-.37-.1l-1.3-.75c-.36-.21-.48-.67-.27-1.02.21-.36.66-.48,1.02-.27l1.3.75c.36.21.48.67.27,1.02-.14.24-.39.38-.65.38Z"/>
    <path class="cls-1" d="M22.03,21.5c-.13,0-.26-.03-.37-.1l-1.3-.75c-.36-.21-.48-.67-.27-1.02.21-.36.66-.48,1.02-.27l1.3.75c.36.21.48.67.27,1.02-.14.24-.39.38-.65.38Z"/>
  </g>
</svg>